<svg width="16" height="21" viewBox="0 0 16 21" fill="none" xmlns="http://www.w3.org/2000/svg">
<path d="M15.6381 14.5826L15.6301 14.623L15.6221 14.6714L15.6142 14.7118L15.5982 14.7522L15.5903 14.7925L15.5743 14.8329L15.5584 14.8733L15.5424 14.9056L15.5265 14.946L15.5026 14.9783L15.4787 15.0106L15.4548 15.0429L15.4309 15.0752L15.4069 15.1075L15.3751 15.1398L15.3512 15.164L15.3193 15.1963L15.2874 15.2205L15.2555 15.2447L15.2236 15.2609L15.1917 15.2851L15.1519 15.3093L15.112 15.3255L15.0722 15.3497L15.0323 15.3658L14.9925 15.382L14.9526 15.3981V15.3901L14.9128 15.4062L14.8729 15.4143L14.8012 15.4304L14.7613 15.4385L14.7215 15.4466L14.6816 15.4547L14.6418 15.4627L14.594 15.4708L14.5541 15.4789H14.3947L14.3548 15.4708H14.307L14.2672 15.4627L14.2273 15.4547L14.1795 15.4466L14.1396 15.4385L14.0998 15.4304L14.0599 15.4224L14.0201 15.4143L13.9802 15.4062L13.9404 15.3981L13.9005 15.382L13.8607 15.3739L13.8208 15.3578L13.781 15.3416L13.7411 15.3255L13.7013 15.3093L13.6614 15.2932L13.6216 15.277L13.5817 15.2609L13.5419 15.2447L13.502 15.2286L13.4621 15.2124L13.4223 15.1882L13.3904 15.164L13.3506 15.1398L13.3187 15.1155L13.2868 15.0913L13.2549 15.0671L13.223 15.0429L13.1912 15.0186L13.1593 14.9944L13.1274 14.9702L13.0955 14.9379L13.1194 14.9056L13.1513 14.8733L13.1752 14.841L13.2071 14.8087L13.231 14.7764L13.2549 14.7441L13.2868 14.7118L13.3107 14.6795L13.3426 14.6472L13.3665 14.6149L13.3984 14.5826L13.4223 14.5503L13.4462 14.518L13.4781 14.4857L13.502 14.4534L13.5339 14.4211L13.5578 14.3888L13.5897 14.413L13.6295 14.4373L13.6614 14.4615L13.7013 14.4857L13.7331 14.5099L13.773 14.5342L13.8049 14.5584L13.8447 14.5745L13.8766 14.5988L13.9165 14.6149L13.9563 14.6311L13.9962 14.6472L14.036 14.6634L14.0759 14.6795L14.1157 14.6957L14.1556 14.7118L14.1954 14.7279L14.2353 14.736L14.315 14.7522L14.3628 14.7602L14.4027 14.7683H14.4425L14.4903 14.7764H14.578L14.6258 14.7683L14.6657 14.7602L14.7055 14.7522L14.7454 14.7441L14.7773 14.7279L14.8092 14.7118L14.841 14.6876L14.865 14.6553L14.8809 14.623L14.8968 14.5826L14.9048 14.5422V14.5342L14.8968 14.4857L14.8809 14.4453L14.857 14.413L14.8251 14.3888L14.7932 14.3646L14.7613 14.3484L14.7215 14.3323L14.6816 14.3161L14.6338 14.2919L14.6019 14.2839L14.57 14.2758L14.5302 14.2596L14.4903 14.2516L14.4505 14.2354L14.4106 14.2273L14.3628 14.2112L14.323 14.2031L14.2751 14.187L14.2353 14.1789L14.1954 14.1627L14.1556 14.1547L14.1157 14.1385L14.0759 14.1224L14.036 14.1143L13.9962 14.0981L13.9563 14.082L13.9165 14.0658L13.8686 14.0497L13.8288 14.0335L13.7889 14.0174L13.7491 14.0012L13.7092 13.977L13.6694 13.9528L13.6375 13.9286L13.5976 13.9043L13.5658 13.8801L13.5339 13.8559L13.502 13.8317L13.4701 13.7994L13.4382 13.7671L13.4143 13.7348L13.3904 13.7025L13.3665 13.6702L13.3426 13.6379L13.3187 13.5975L13.3027 13.5652L13.2868 13.5329L13.2788 13.4925L13.2629 13.4602L13.2549 13.4199L13.2469 13.3795L13.239 13.3391L13.231 13.2988L13.223 13.2503V13.1534L13.231 13.113L13.239 13.0727L13.2469 13.0323L13.2549 12.9919L13.2629 12.9516L13.2788 12.9112L13.2868 12.8708L13.3027 12.8304L13.3187 12.7901L13.3346 12.7497L13.3585 12.7093L13.3824 12.6689L13.4064 12.6366L13.4303 12.6043L13.4621 12.5721L13.494 12.5398L13.5259 12.5075L13.5578 12.4752L13.5897 12.4509L13.6216 12.4267L13.6534 12.4025L13.6853 12.3783L13.7252 12.354L13.765 12.3379L13.8049 12.3137L13.8447 12.2975L13.8846 12.2814L13.9244 12.2652L13.9643 12.2491L13.9962 12.241L14.036 12.2329L14.0759 12.2248L14.1157 12.2168L14.1556 12.2087L14.1954 12.2006L14.2353 12.1925L14.2751 12.1845L14.315 12.1764H14.4903L14.5382 12.1845L14.586 12.1925H14.6258L14.6737 12.2006L14.7135 12.2087L14.7613 12.2168L14.8012 12.2248L14.841 12.2329L14.8809 12.241L14.9207 12.2491L14.9606 12.2571L15.0005 12.2733L15.0403 12.2894L15.0802 12.2975L15.12 12.3137L15.1599 12.3298L15.1997 12.346L15.2396 12.3621L15.2794 12.3783L15.3193 12.4025L15.3512 12.4186L15.391 12.4429L15.4309 12.4671L15.4627 12.4913L15.5026 12.5155L15.5345 12.5398L15.5664 12.564L15.5982 12.5882L15.6301 12.6124L15.6062 12.6447L15.5823 12.677L15.5584 12.7093L15.5345 12.7416L15.5106 12.782L15.4866 12.8143L15.4627 12.8466L15.4388 12.8789L15.4149 12.9112L15.391 12.9435L15.3671 12.9758L15.3432 13.0081L15.3193 13.0484L15.2954 13.0807L15.2714 13.113L15.1917 13.2907L15.1678 13.323L15.1359 13.2988L15.0961 13.2745L15.0642 13.2503L15.0323 13.2261L14.9925 13.2099L14.9606 13.1857L14.9207 13.1696L14.8889 13.1534L14.849 13.1373L14.8171 13.1211L14.7773 13.105L14.7454 13.0888L14.6976 13.0727L14.6577 13.0565L14.6179 13.0404L14.578 13.0323L14.5541 13.0484L14.5143 13.0404L14.4744 13.0323L14.4345 13.0242L14.3947 13.0161H14.307L14.2592 13.0242L14.2193 13.0323L14.1795 13.0404L14.1476 13.0565L14.1157 13.0727L14.0759 13.105L14.052 13.1453L14.036 13.1857L14.0281 13.2261V13.2342L14.036 13.2907L14.052 13.3391L14.0679 13.3634L14.0998 13.3957L14.1396 13.4199L14.1715 13.4441L14.2114 13.4602L14.2592 13.4764L14.307 13.4925L14.3389 13.5006L14.3708 13.5168L14.4106 13.5248L14.4505 13.541L14.4903 13.5491L14.5382 13.5652L14.586 13.5814L14.6338 13.5975L14.6816 13.6056L14.7215 13.6217L14.7693 13.6379L14.8092 13.646L14.849 13.6621L14.8889 13.6783L14.9287 13.6944L14.9686 13.7106L15.0084 13.7267L15.0483 13.7348L15.0961 13.7509L15.1359 13.7752L15.1758 13.7913L15.2157 13.8155L15.2555 13.8398L15.2954 13.864L15.3272 13.8882L15.3591 13.9124L15.391 13.9366L15.4229 13.9689L15.4548 14.0012L15.4866 14.0335L15.5185 14.0658L15.5424 14.0981L15.5664 14.1385L15.5903 14.1708L15.6142 14.2112L15.6301 14.2435L15.6461 14.2839L15.654 14.3242L15.662 14.3646L15.6779 14.4453L15.6859 14.4857L15.6939 14.5342V14.6311L15.6381 14.5826ZM12.8086 15.4062H10.4892V12.4106H12.8245V13.0888H11.2623V13.5814H12.6651V14.2193H11.2623V14.7279H12.8484V15.4062H12.8086ZM9.85152 15.4062H9.11026V13.6379L9.08635 13.6702L9.06244 13.7106L9.03853 13.7429L9.01462 13.7752L8.99071 13.8155L8.96679 13.8478L8.94288 13.8801L8.91897 13.9205L8.89506 13.9528L8.87115 13.9851L8.84724 14.0174L8.82333 14.0578L8.79941 14.0901L8.7755 14.1224L8.75159 14.1627L8.72768 14.195L8.70377 14.2273L8.67986 14.2677L8.66392 14.3L8.64 14.3323L8.61609 14.3727L8.59218 14.405L8.56827 14.4373L8.54436 14.4776L8.52045 14.5099L8.50451 14.5422L8.48059 14.5745L8.45668 14.6149L8.43277 14.6472L8.40886 14.6795L8.39292 14.7199L8.36901 14.7522L8.3451 14.7845L8.32119 14.8248L8.29727 14.8571H8.28133L8.25742 14.8168L8.23351 14.7845L8.2096 14.7441L8.18569 14.7118L8.16178 14.6714L8.13786 14.6391L8.11395 14.5988L8.09004 14.5665L8.06613 14.5261L8.05019 14.4938L8.02628 14.4534L8.00237 14.4211L7.97845 14.3807L8.01831 14.3404L7.99439 14.3L7.97048 14.2677L7.94657 14.2273L7.92266 14.195L7.89875 14.1547L7.87484 14.1224L7.8589 14.0981L7.83499 14.0658L7.81107 14.0255L7.78716 13.9932L7.76325 13.9528L7.73934 13.9205L7.71543 13.8801L7.69949 13.8559L7.67558 13.8155L7.65166 13.7832L7.62775 13.7429L7.60384 13.7106L7.57993 13.6702L7.55602 13.6379V15.3981H6.79085V12.4025H7.61978L7.64369 12.4348L7.66761 12.4752L7.69152 12.5075L7.71543 12.5478L7.73934 12.5801L7.76325 12.6205L7.78716 12.6528L7.81107 12.6932L7.83499 12.7255L7.8589 12.7578L7.88281 12.7981L7.90672 12.8304L7.93063 12.8708L7.95454 12.9031L7.97845 12.9435L8.00237 12.9758L8.02628 13.0081L8.05019 13.0484L8.0741 13.0807L8.09801 13.1211L8.12192 13.1534L8.14583 13.1938L8.16975 13.2261L8.18569 13.2665L8.2096 13.2988L8.22554 13.3311L8.24945 13.3714L8.27336 13.4037L8.29727 13.4441L8.32119 13.4764L8.33713 13.5168L8.36104 13.5491L8.38495 13.5894L8.40886 13.6217L8.43277 13.5894L8.45668 13.5491L8.48059 13.5168L8.50451 13.4764L8.52842 13.4441L8.55233 13.4037L8.57624 13.3714L8.60015 13.3311L8.62406 13.2988L8.64 13.2665L8.66392 13.2261L8.68783 13.1938L8.71174 13.1534L8.73565 13.1211L8.75956 13.0807L8.78347 13.0484L8.80738 13.0081L8.8313 12.9758L8.85521 12.9435L8.87912 12.9031L8.90303 12.8708L8.92694 12.8304L8.95085 12.7981L8.97476 12.7578L8.99071 12.7255L9.01462 12.6932L9.03853 12.6528L9.06244 12.6205L9.08635 12.5801L9.11026 12.5478L9.13417 12.5075L9.15809 12.4752L9.182 12.4348L9.20591 12.4025H10.0348V15.3981L9.85152 15.4062ZM5.16487 14.1708L5.14893 14.1304L5.13299 14.0901L5.11705 14.0497L5.10111 14.0093L5.08517 13.9689L5.06923 13.9286L5.05329 13.8882L5.03735 13.8478L5.0214 13.8075L5.00546 13.7671L4.98952 13.7267L4.97358 13.6863L4.95764 13.646L4.9417 13.6056L4.92576 13.5652L4.90982 13.5248L4.89388 13.4845L4.87794 13.4441L4.86199 13.4037L4.84605 13.3634L4.83011 13.323L4.81417 13.2826L4.79823 13.323L4.78229 13.3634L4.76635 13.4037L4.75041 13.4441L4.73447 13.4845L4.71853 13.5248L4.70259 13.5652L4.68664 13.6056L4.6707 13.646L4.65476 13.6863L4.63882 13.7267L4.62288 13.7671L4.60694 13.8075L4.591 13.8478L4.57506 13.8882L4.55912 13.9286L4.54318 13.9689L4.52723 14.0093L4.51129 14.0497L4.49535 14.0901L4.47941 14.1304L4.46347 14.1708L4.44753 14.2112H5.13299L5.16487 14.1708ZM6.43218 15.4062H5.6431L5.62716 15.3658L5.61122 15.3255L5.59528 15.2851L5.57934 15.2447L5.5634 15.2043L5.54746 15.164L5.53152 15.1236L5.51557 15.0832L5.49963 15.0429L5.48369 15.0025L5.46775 14.9621L5.45181 14.9217L5.43587 14.8814L5.41993 14.841L5.40399 14.8006H4.25624L4.2403 14.841L4.22436 14.8814L4.20841 14.9217L4.19247 14.9621L4.17653 15.0025L4.14465 15.0752L4.12871 15.1155L4.11277 15.1559L4.09683 15.1963L4.08089 15.2366L4.06495 15.277L4.04901 15.3174L4.03306 15.3578L4.01712 15.3981H3.22008L3.23602 15.3578L3.2679 15.2851L3.28384 15.2447L3.29978 15.2043L3.33166 15.1317L3.3476 15.0913L3.36354 15.0509L3.37949 15.0106L3.39543 14.9863L3.41137 14.946L3.42731 14.9056L3.44325 14.8652L3.45919 14.8248L3.47513 14.7845L3.49107 14.7441L3.50701 14.7037L3.52295 14.6634L3.53889 14.623L3.55484 14.5826L3.57078 14.5422L3.60266 14.4696L3.6186 14.4292L3.63454 14.3888L3.65048 14.3484L3.66642 14.3081L3.68236 14.2677L3.6983 14.2273L3.71425 14.187L3.73019 14.1466L3.74613 14.1062L3.76207 14.0658L3.77801 14.0255L3.79395 13.9851L3.80989 13.9447L3.82583 13.9043L3.84177 13.864L3.85771 13.8236L3.87365 13.7832L3.8896 13.7429L3.90554 13.7025L3.92148 13.6621L3.93742 13.6217L3.95336 13.5814L3.9693 13.541L3.98524 13.5006L4.00118 13.4602L4.01712 13.4199L4.03306 13.3795L4.04901 13.3391L4.06495 13.2988L4.08089 13.2584L4.09683 13.218L4.11277 13.1776L4.14465 13.105L4.16059 13.0646L4.17653 13.0242L4.19247 12.9838L4.20841 12.9435L4.22436 12.9031L4.2403 12.8627L4.25624 12.8224L4.27218 12.782L4.28812 12.7416L4.30406 12.7012L4.31203 12.6609L4.32797 12.6205L4.34391 12.5801L4.35985 12.5398L4.3758 12.4994L4.39174 12.459L4.40768 12.4186L4.42362 12.3783L4.43956 12.3379L4.47144 12.2652L4.48738 12.2248H5.23661L5.25255 12.2652L5.26849 12.3056L5.28443 12.346L5.30037 12.3863L5.31631 12.4267L5.33225 12.4671L5.34819 12.5075L5.36414 12.5478L5.38008 12.5882L5.39602 12.6286L5.41196 12.6689L5.4279 12.7093L5.44384 12.7497L5.45978 12.7901L5.47572 12.8304L5.49166 12.8708L5.5076 12.9112L5.52354 12.9516L5.53949 12.9919L5.55543 13.0323L5.57137 13.0727L5.58731 13.113L5.60325 13.1534L5.61919 13.1938L5.63513 13.2342L5.65107 13.2745L5.66701 13.3149L5.68295 13.3553L5.6989 13.3957L5.71484 13.436L5.74672 13.5087L5.76266 13.5491L5.7786 13.5894L5.79454 13.6298L5.81048 13.6702L5.82642 13.7106L5.84236 13.7509L5.85831 13.7913L5.87425 13.8317L5.89019 13.872L5.90613 13.9124L5.92207 13.9528L5.93801 13.9932L5.95395 14.0335L5.96989 14.0739L5.98583 14.1143L6.00177 14.1547L6.01772 14.195L6.03366 14.2354L6.0496 14.2758L6.06554 14.3161L6.08148 14.3565L6.09742 14.3969L6.11336 14.4373L6.1293 14.4776L6.14524 14.518L6.16118 14.5584L6.17712 14.5988L6.19307 14.6391L6.20901 14.6795L6.22495 14.7199L6.24089 14.7602L6.25683 14.8006L6.27277 14.841L6.28871 14.8814L6.30465 14.9217L6.32059 14.9621L6.33653 15.0025L6.35248 15.0429L6.36842 15.0832L6.38436 15.1236L6.4003 15.164L6.41624 15.2043L6.43218 15.2447L6.44812 15.2851L6.46406 15.3255L6.48 15.3658L6.51188 15.4385L6.43218 15.4062ZM2.89329 15.0186L2.8614 15.0429L2.82952 15.0671L2.79764 15.0913L2.76576 15.1155L2.73388 15.1398L2.70199 15.164L2.67011 15.1882L2.63026 15.2124L2.59041 15.2366L2.55055 15.2609L2.5107 15.277L2.47085 15.3012L2.431 15.3174L2.39115 15.3335L2.35129 15.3497L2.31144 15.3658L2.27159 15.382L2.23174 15.3981L2.19188 15.4143L2.15203 15.4304L2.11218 15.4466L2.07233 15.4547L2.03247 15.4627L1.99262 15.4708L1.95277 15.4789L1.91292 15.487L1.86509 15.495L1.82524 15.5031L1.77742 15.5112L1.73757 15.5193L1.68974 15.5273H1.56221L1.52236 15.5193L1.47454 15.5112L1.43469 15.5031L1.39483 15.495L1.35498 15.487L1.31513 15.4789L1.27528 15.4708L1.23542 15.4627L1.19557 15.4547L1.15572 15.4466L1.11587 15.4385L1.07602 15.4224L1.03616 15.4062L0.99631 15.3901L0.956458 15.3739L0.916606 15.3578L0.876753 15.3416L0.836901 15.3255L0.797048 15.3012L0.765166 15.2851L0.725314 15.2609L0.693432 15.2366L0.66155 15.2124L0.629668 15.1882L0.597786 15.164L0.565904 15.1398L0.534022 15.1155L0.50214 15.0913L0.470258 15.059L0.438377 15.0348L0.406495 15.0025L0.374612 14.9702L0.350701 14.9379L0.32679 14.9056L0.302878 14.8733L0.278967 14.841L0.255055 14.8087L0.231144 14.7764L0.215203 14.7441L0.191291 14.7037L0.16738 14.6714L0.151439 14.6311L0.135498 14.5907L0.119557 14.5503L0.103616 14.5099L0.0876752 14.4776L0.0717342 14.4373L0.0637638 14.3969L0.0478228 14.3565L0.0398524 14.3161L0.0239114 14.2758L0.0159407 14.2354V14.195L0.00797036 14.1547V14.1143L0 14.0739V13.7267L0.00797036 13.6783L0.0159407 13.6379L0.0239114 13.5975L0.0318818 13.5571L0.0478228 13.5168L0.0557931 13.4764L0.0717342 13.436L0.0876752 13.3957L0.103616 13.3553L0.119557 13.3149L0.135498 13.2745L0.151439 13.2342L0.16738 13.1938L0.183321 13.1534L0.207232 13.113L0.231144 13.0807L0.247085 13.0484L0.270996 13.0161L0.294908 12.9838L0.318819 12.9516L0.342731 12.9193L0.366642 12.887L0.390554 12.8547L0.422436 12.8224L0.446347 12.7901L0.478229 12.7578L0.510111 12.7255L0.541993 12.7012L0.573875 12.6689L0.605757 12.6447L0.637639 12.6205L0.66952 12.5963L0.701402 12.5721L0.733284 12.5478L0.765166 12.5236L0.805019 12.4994L0.844871 12.4752L0.884724 12.4509L0.924576 12.4348L0.964428 12.4186L1.00428 12.3944L1.03616 12.3783L1.07602 12.3621L1.11587 12.346L1.15572 12.3379L1.19557 12.3217L1.23542 12.3137L1.27528 12.2975L1.31513 12.2894L1.35498 12.2814L1.39483 12.2733L1.43469 12.2652L1.47454 12.2571L1.51439 12.2491L1.55424 12.241H1.72162L1.76945 12.2491L1.81727 12.2571H1.85712L1.89698 12.2652L1.9448 12.2733L1.98465 12.2814L2.0245 12.2894L2.06436 12.2975L2.10421 12.3056L2.14406 12.3137L2.18391 12.3217L2.22377 12.3379L2.26362 12.346L2.2955 12.3621L2.33535 12.3783L2.40709 12.4106L2.44694 12.4267L2.48679 12.4509L2.52664 12.4671L2.55853 12.4913L2.59838 12.5155L2.63026 12.5398L2.67011 12.564L2.70199 12.5882L2.73388 12.6124L2.76576 12.6366L2.79764 12.6609L2.82952 12.6932L2.8614 12.7174L2.83749 12.7497L2.80561 12.782L2.7817 12.8143L2.74982 12.8466L2.72591 12.8789L2.70199 12.9112L2.67011 12.9435L2.6462 12.9758L2.62229 13.0081L2.59041 13.0404L2.5665 13.0727L2.53461 13.105L2.5107 13.1373L2.48679 13.1696L2.45491 13.2019L2.431 13.2342L2.39912 13.2665L2.3752 13.2988L2.34332 13.2745L2.31144 13.2422L2.27956 13.218L2.24768 13.1938L2.21579 13.1696L2.18391 13.1453L2.15203 13.1211L2.11218 13.0969L2.0803 13.0807L2.04841 13.0646L2.01653 13.0484L1.97668 13.0323L1.93683 13.0161L1.89698 13.0081L1.85712 13L1.81727 12.9919L1.77742 12.9838L1.72959 12.9758L1.68177 12.9677H1.5941L1.55424 12.9758L1.51439 12.9838L1.47454 12.9919L1.43469 13L1.39483 13.0161L1.35498 13.0323L1.3231 13.1292L1.28325 13.1453L1.25137 13.1696L1.21948 13.1938L1.1876 13.218L1.15572 13.2422L1.12384 13.2665L1.09196 13.2907L1.06804 13.323L1.03616 13.3553L1.01225 13.3876L0.98834 13.4199L0.964428 13.4522L0.948487 13.4925L0.924576 13.5248L0.908635 13.5652L0.892694 13.6056L0.876753 13.646L0.860812 13.6863L0.852842 13.7267L0.844871 13.7671L0.836901 13.8155V14.1143L0.844871 14.1547L0.852842 14.195L0.860812 14.2354L0.876753 14.2758L0.924576 14.2596L0.940517 14.3L0.956458 14.3404L0.980369 14.3807L1.02022 14.4453L1.04413 14.4776L1.06804 14.5099L1.09993 14.5422L1.12384 14.5745L1.15572 14.5988L1.1876 14.623L1.21948 14.6472L1.25137 14.6714L1.28325 14.6957L1.3231 14.7118L1.36295 14.7279L1.4028 14.7441L1.44266 14.7602L1.48251 14.7764L1.52236 14.7845L1.56221 14.7925L1.60207 14.8006L1.64989 14.8087H1.72162L1.76945 14.8006L1.81727 14.7925L1.85712 14.7845L1.89698 14.7764L1.93683 14.7683L1.97668 14.7602L2.01653 14.7522L2.05638 14.736L2.08827 14.7199L2.12812 14.7037L2.16 14.6876L2.19188 14.6634V14.2596H1.60207V13.6621H2.9172V15.0025L2.89329 15.0186ZM1.5941 5.63602H3.3476V4.26335H1.5941V1.46149H3.41934V0.0888198H0.103616V9.99627H3.44325V8.6236H1.5941V5.63602ZM14.1396 5.93478V8.17143C14.1396 8.56708 13.9563 8.75279 13.5817 8.75279H13.3027C12.9122 8.75279 12.7289 8.56708 12.7289 8.17143V1.91366C12.7289 1.51801 12.9122 1.3323 13.3027 1.3323H13.5498C13.9244 1.3323 14.1078 1.51801 14.1078 1.91366V3.85155H15.5664V1.82484C15.5664 0.597515 14.9845 0 13.773 0H13.0477C11.8362 0 11.2384 0.60559 11.2384 1.84099V8.23602C11.2384 9.47143 11.8362 10.077 13.0477 10.077H13.781C14.9925 10.077 15.5903 9.47143 15.5903 8.23602V5.92671H14.1396M8.97476 0.0888198H10.4652V9.99627H8.97476V0.0888198ZM6.81476 4.48944C6.81476 4.88509 6.63144 5.07081 6.25683 5.07081H5.6431V1.42112H6.25683C6.63144 1.42112 6.81476 1.60683 6.81476 2.00248V4.48944ZM6.49594 0.0888198H4.16059V9.99627H5.65107V6.40311H6.49594C7.70746 6.40311 8.30524 5.79752 8.30524 4.56211V1.92981C8.30524 0.69441 7.70746 0.0888198 6.49594 0.0888198ZM3.61063 18.9509H12.1311L7.78716 20.4043L3.61063 18.9509Z" fill="#FAFAFA"/>
</svg>
