<svg width="26" height="20" viewBox="0 0 26 20" fill="none" xmlns="http://www.w3.org/2000/svg">
<path d="M0.519209 14.5806C-0.442223 15.2258 -0.121746 16.4516 1.92931 17.0323C4.04446 17.7419 6.3519 17.9355 8.59524 17.5484C8.72343 17.5484 8.85162 17.4839 8.91572 17.4839V15.2903L6.73647 16C5.90323 16.2581 5.06999 16.3226 4.23675 16.129C3.59579 15.9355 3.72398 15.5484 4.49313 15.2258L8.91572 13.6774V11.2903L2.76255 13.4194C1.9934 13.6774 1.22426 14.0645 0.519209 14.5806ZM15.3894 4.90323V11.1613C18.0173 12.4516 20.0683 11.1613 20.0683 7.80645C20.0683 4.3871 18.8505 2.83871 15.3253 1.6129C13.4665 0.967742 11.5436 0.387097 9.62077 0V18.6452L14.1075 20V4.32258C14.1075 3.6129 14.1075 3.09677 14.6202 3.29032C15.3253 3.48387 15.3894 4.19355 15.3894 4.90323ZM23.7218 13.0968C21.863 12.4516 19.876 12.1935 17.9532 12.3871C16.9277 12.4516 15.9662 12.7097 15.0689 13.0323L14.8766 13.0968V15.6129L19.0428 14.0645C19.876 13.8065 20.7093 13.7419 21.5425 13.9355C22.1835 14.129 22.0553 14.5161 21.2861 14.8387L14.8766 17.2258V19.6774L23.7218 16.3871C24.3627 16.129 24.9396 15.8065 25.4524 15.2903C25.901 14.6452 25.7087 13.7419 23.7218 13.0968Z" fill="#FAFAFA"/>
</svg>
