<svg width="136" height="24" viewBox="0 0 136 24" fill="none" xmlns="http://www.w3.org/2000/svg">
<path d="M13.7299 3.50965L15.4899 7.02965C15.7299 7.51965 16.3699 7.98965 16.9099 8.07965L20.0999 8.60965C22.1399 8.94965 22.6199 10.4296 21.1499 11.8896L18.6699 14.3696C18.2499 14.7896 18.0199 15.5996 18.1499 16.1796L18.8599 19.2496C19.4199 21.6796 18.1299 22.6196 15.9799 21.3496L12.9899 19.5796C12.4499 19.2596 11.5599 19.2596 11.0099 19.5796L8.01991 21.3496C5.87991 22.6196 4.57991 21.6696 5.13991 19.2496L5.84991 16.1796C5.97991 15.5996 5.74991 14.7896 5.32991 14.3696L2.84991 11.8896C1.38991 10.4296 1.85991 8.94965 3.89991 8.60965L7.08991 8.07965C7.61991 7.98965 8.25991 7.51965 8.49991 7.02965L10.2599 3.50965C11.2199 1.59965 12.7799 1.59965 13.7299 3.50965Z" fill="#F6F6F9" stroke="#F6F6F9" stroke-width="1.5" stroke-linecap="round" stroke-linejoin="round"/>
<path d="M41.7299 3.50965L43.4899 7.02965C43.7299 7.51965 44.3699 7.98965 44.9099 8.07965L48.0999 8.60965C50.1399 8.94965 50.6199 10.4296 49.1499 11.8896L46.6699 14.3696C46.2499 14.7896 46.0199 15.5996 46.1499 16.1796L46.8599 19.2496C47.4199 21.6796 46.1299 22.6196 43.9799 21.3496L40.9899 19.5796C40.4499 19.2596 39.5599 19.2596 39.0099 19.5796L36.0199 21.3496C33.8799 22.6196 32.5799 21.6696 33.1399 19.2496L33.8499 16.1796C33.9799 15.5996 33.7499 14.7896 33.3299 14.3696L30.8499 11.8896C29.3899 10.4296 29.8599 8.94965 31.8999 8.60965L35.0899 8.07965C35.6199 7.98965 36.2599 7.51965 36.4999 7.02965L38.2599 3.50965C39.2199 1.59965 40.7799 1.59965 41.7299 3.50965Z" fill="#F6F6F9" stroke="#F6F6F9" stroke-width="1.5" stroke-linecap="round" stroke-linejoin="round"/>
<path d="M69.7299 3.50965L71.4899 7.02965C71.7299 7.51965 72.3699 7.98965 72.9099 8.07965L76.0999 8.60965C78.1399 8.94965 78.6199 10.4296 77.1499 11.8896L74.6699 14.3696C74.2499 14.7896 74.0199 15.5996 74.1499 16.1796L74.8599 19.2496C75.4199 21.6796 74.1299 22.6196 71.9799 21.3496L68.9899 19.5796C68.4499 19.2596 67.5599 19.2596 67.0099 19.5796L64.0199 21.3496C61.8799 22.6196 60.5799 21.6696 61.1399 19.2496L61.8499 16.1796C61.9799 15.5996 61.7499 14.7896 61.3299 14.3696L58.8499 11.8896C57.3899 10.4296 57.8599 8.94965 59.8999 8.60965L63.0899 8.07965C63.6199 7.98965 64.2599 7.51965 64.4999 7.02965L66.2599 3.50965C67.2199 1.59965 68.7799 1.59965 69.7299 3.50965Z" fill="#F6F6F9" stroke="#F6F6F9" stroke-width="1.5" stroke-linecap="round" stroke-linejoin="round"/>
<path d="M97.7299 3.50965L99.4899 7.02965C99.7299 7.51965 100.37 7.98965 100.91 8.07965L104.1 8.60965C106.14 8.94965 106.62 10.4296 105.15 11.8896L102.67 14.3696C102.25 14.7896 102.02 15.5996 102.15 16.1796L102.86 19.2496C103.42 21.6796 102.13 22.6196 99.9799 21.3496L96.9899 19.5796C96.4499 19.2596 95.5599 19.2596 95.0099 19.5796L92.0199 21.3496C89.8799 22.6196 88.5799 21.6696 89.1399 19.2496L89.8499 16.1796C89.9799 15.5996 89.7499 14.7896 89.3299 14.3696L86.8499 11.8896C85.3899 10.4296 85.8599 8.94965 87.8999 8.60965L91.0899 8.07965C91.6199 7.98965 92.2599 7.51965 92.4999 7.02965L94.2599 3.50965C95.2199 1.59965 96.7799 1.59965 97.7299 3.50965Z" stroke="#F6F6F9" stroke-width="1.5" stroke-linecap="round" stroke-linejoin="round"/>
<path d="M96 2.5V19C95.8333 18.8333 95.4 18.6 95 19C94.5 19.5 93.5 19.5 91.5 21C89.5 22.5 90 21 89.5 21C89.1 21 89.3333 19.6667 89.5 19C89.6667 18.1667 90 16.4 90 16V14.5C90 14 88.5 13 88 13C87.5 13 86.5 11 86.5 10.5C86.5 10.1 87.1667 9.33333 87.5 9C88.5 8.83333 90.6 8.5 91 8.5C91.5 8.5 92.5 7.5 93 7C93.5 6.5 94 5 94 4.5C94 4.1 95.3333 3 96 2.5Z" fill="#F6F6F9" stroke="#F6F6F9"/>
<path d="M125.73 3.50965L127.49 7.02965C127.73 7.51965 128.37 7.98965 128.91 8.07965L132.1 8.60965C134.14 8.94965 134.62 10.4296 133.15 11.8896L130.67 14.3696C130.25 14.7896 130.02 15.5996 130.15 16.1796L130.86 19.2496C131.42 21.6796 130.13 22.6196 127.98 21.3496L124.99 19.5796C124.45 19.2596 123.56 19.2596 123.01 19.5796L120.02 21.3496C117.88 22.6196 116.58 21.6696 117.14 19.2496L117.85 16.1796C117.98 15.5996 117.75 14.7896 117.33 14.3696L114.85 11.8896C113.39 10.4296 113.86 8.94965 115.9 8.60965L119.09 8.07965C119.62 7.98965 120.26 7.51965 120.5 7.02965L122.26 3.50965C123.22 1.59965 124.78 1.59965 125.73 3.50965Z" stroke="#F6F6F9" stroke-width="1.5" stroke-linecap="round" stroke-linejoin="round"/>
</svg>
