<svg width="33" height="33" viewBox="0 0 33 33" fill="none" xmlns="http://www.w3.org/2000/svg">
<path d="M19.0963 3.64875L21.7363 8.92875C22.0963 9.66375 23.0563 10.3688 23.8663 10.5038L28.6513 11.2987C31.7113 11.8087 32.4313 14.0287 30.2263 16.2188L26.5063 19.9387C25.8763 20.5687 25.5313 21.7837 25.7263 22.6537L26.7913 27.2588C27.6313 30.9038 25.6963 32.3138 22.4713 30.4088L17.9863 27.7538C17.1763 27.2738 15.8413 27.2738 15.0163 27.7538L10.5313 30.4088C7.32133 32.3138 5.37133 30.8888 6.21133 27.2588L7.27633 22.6537C7.47133 21.7837 7.12633 20.5687 6.49633 19.9387L2.77633 16.2188C0.586328 14.0287 1.29133 11.8087 4.35133 11.2987L9.13633 10.5038C9.93133 10.3688 10.8913 9.66375 11.2513 8.92875L13.8913 3.64875C15.3313 0.78375 17.6713 0.78375 19.0963 3.64875Z" stroke="#FAFAFA" stroke-width="3" stroke-linecap="round" stroke-linejoin="round"/>
</svg>
