<svg width="36" height="36" viewBox="0 0 36 36" fill="none" xmlns="http://www.w3.org/2000/svg">
<path d="M17.9689 0C8.49656 0 0.736875 7.29109 0 16.5562L9.66431 20.545C10.5082 19.9672 11.5104 19.6582 12.5367 19.6595C12.6326 19.6595 12.7274 19.6621 12.8208 19.6672L17.1191 13.4476V13.3605C17.1191 9.618 20.1693 6.57244 23.9188 6.57244C27.6681 6.57244 30.7183 9.618 30.7183 13.3605C30.7183 17.1029 27.6681 20.1497 23.9188 20.1497C23.8667 20.1497 23.8161 20.1484 23.7644 20.1472L17.6341 24.5121C17.638 24.593 17.6406 24.6739 17.6406 24.7534C17.6406 27.564 15.3508 29.8499 12.5367 29.8499C10.0665 29.8499 7.99973 28.089 7.53272 25.7584L0.620156 22.9052C2.76089 30.4607 9.7148 36 17.9689 36C27.9277 36 36 27.9402 36 18C36 8.05871 27.9277 0 17.9689 0ZM11.2995 27.312L9.0848 26.3983C9.47672 27.2144 10.1565 27.8972 11.0582 28.2721C13.0068 29.0831 15.2539 28.1604 16.0661 26.2134C16.4594 25.2772 16.4617 24.2251 16.0726 23.2872C15.6833 22.3426 14.9477 21.6059 14.0046 21.2132C13.0666 20.8244 12.0624 20.8384 11.1801 21.1709L13.4688 22.1155C14.9062 22.7136 15.586 24.3614 14.9867 25.7963C14.3886 27.2311 12.737 27.9101 11.2995 27.312ZM28.4497 13.3605C28.4497 10.8669 26.4167 8.83661 23.9192 8.83661C21.4204 8.83661 19.3874 10.8669 19.3874 13.3605C19.3874 15.8542 21.4204 17.8833 23.9192 17.8833C26.4167 17.8833 28.4497 15.8542 28.4497 13.3605ZM20.5227 13.3529C20.5227 11.4765 22.047 9.95576 23.9258 9.95576C25.8057 9.95576 27.33 11.4765 27.33 13.3529C27.33 15.2292 25.8057 16.7501 23.9257 16.7501C22.047 16.7501 20.5227 15.229 20.5227 13.3529Z" fill="#F6F6F9"/>
</svg>
