<svg width="22" height="22" viewBox="0 0 22 22" fill="none" xmlns="http://www.w3.org/2000/svg">
<path d="M4.90059 1.86863C4.95707 1.81472 5.01611 1.76339 5.08029 1.71719C6.80537 0.598063 8.79487 0 11.0026 0C13.0665 0 15.0021 0.572395 16.6502 1.56318C16.7708 1.63248 17.0994 1.85836 17.2663 2.06114C15.6721 0.305449 10.9897 4.07607 10.9897 4.07607C9.37246 2.82604 7.88099 1.97643 6.77457 1.67098C5.84528 1.41687 5.20608 1.62991 4.90059 1.86863ZM19.0684 3.52678C19.0222 3.47287 18.9682 3.4241 18.9195 3.36764C18.519 2.92615 18.0236 2.82091 17.5769 2.84658C17.1687 2.97748 15.2922 3.65255 12.9792 5.83689C12.9792 5.83689 15.5823 8.36775 17.179 10.9576C18.7731 13.545 19.7255 15.5804 19.1402 18.4014C20.9834 16.3762 22.0051 13.7375 22 10.9987C22 8.11621 20.891 5.48781 19.0684 3.52678ZM15.0945 12.0614C14.0805 10.9268 13.0306 9.82312 11.9498 8.75277C11.6469 8.45246 11.326 8.13674 10.9872 7.81076C10.9872 7.81076 10.4789 8.31898 9.82171 8.98635V8.98378C8.97713 9.83853 7.88098 10.9499 7.27258 11.6019C6.18927 12.757 3.08566 16.3839 2.91367 18.4193C2.91367 18.4193 2.22312 16.8074 3.7377 13.0855C4.72603 10.6496 7.71669 6.99965 8.9643 5.80866C8.9643 5.80866 7.82194 4.55606 6.39207 3.68848L6.3818 3.68592C6.3818 3.68592 6.36383 3.67308 6.3433 3.66025C5.65532 3.24956 4.90059 2.93128 4.17924 2.88764C3.44249 2.94155 2.97271 3.48314 2.97271 3.48314C1.06023 5.51348 -0.00511571 8.20604 1.84714e-05 11.0013C1.84714e-05 17.0769 4.9237 22 11.0026 22C14.2268 22 17.1251 20.6114 19.1402 18.3988C19.1402 18.3962 18.9092 16.946 17.4306 14.8643C17.0789 14.3792 15.8107 12.8596 15.0945 12.0614Z" fill="#FAFAFA"/>
</svg>
